<?xml version="1.0" encoding="UTF-8" standalone="no"?>
<svg
   role="img"
   viewBox="0 0 24 24"
   version="1.1"
   id="svg1"
   sodipodi:docname="wikit.svg"
   xml:space="preserve"
   inkscape:version="1.3.2 (091e20e, 2023-11-25, custom)"
   xmlns:inkscape="http://www.inkscape.org/namespaces/inkscape"
   xmlns:sodipodi="http://sodipodi.sourceforge.net/DTD/sodipodi-0.dtd"
   xmlns="http://www.w3.org/2000/svg"
   xmlns:svg="http://www.w3.org/2000/svg"
   xmlns:rdf="http://www.w3.org/1999/02/22-rdf-syntax-ns#"
   xmlns:cc="http://creativecommons.org/ns#"
   xmlns:dc="http://purl.org/dc/elements/1.1/"><defs
     id="defs1" /><sodipodi:namedview
     id="namedview1"
     pagecolor="#505050"
     bordercolor="#eeeeee"
     borderopacity="1"
     inkscape:showpageshadow="0"
     inkscape:pageopacity="0"
     inkscape:pagecheckerboard="0"
     inkscape:deskcolor="#505050"
     inkscape:zoom="22.875"
     inkscape:cx="11.978142"
     inkscape:cy="12"
     inkscape:window-width="1366"
     inkscape:window-height="745"
     inkscape:window-x="-8"
     inkscape:window-y="-8"
     inkscape:window-maximized="1"
     inkscape:current-layer="svg1" /><title
     id="title1">Bun</title><path
     d="M12 22.596c6.628 0 12-4.338 12-9.688 0-3.318-2.057-6.248-5.219-7.986-1.286-.715-2.297-1.357-3.139-1.89C14.058 2.025 13.08 1.404 12 1.404c-1.097 0-2.334.785-3.966 1.821a49.92 49.92 0 0 1-2.816 1.697C2.057 6.66 0 9.59 0 12.908c0 5.35 5.372 9.687 12 9.687v.001ZM10.599 4.715c.334-.759.503-1.58.498-2.409 0-.145.202-.187.23-.029.658 2.783-.902 4.162-2.057 4.624-.124.048-.199-.121-.103-.209a5.763 5.763 0 0 0 1.432-1.977Zm2.058-.102a5.82 5.82 0 0 0-.782-2.306v-.016c-.069-.123.086-.263.185-.172 1.962 2.111 1.307 4.067.556 5.051-.082.103-.23-.003-.189-.126a5.85 5.85 0 0 0 .23-2.431Zm1.776-.561a5.727 5.727 0 0 0-1.612-1.806v-.014c-.112-.085-.024-.274.114-.218 2.595 1.087 2.774 3.18 2.459 4.407a.116.116 0 0 1-.049.071.11.11 0 0 1-.153-.026.122.122 0 0 1-.022-.083 5.891 5.891 0 0 0-.737-2.331Zm-5.087.561c-.617.546-1.282.76-2.063 1-.117 0-.195-.078-.156-.181 1.752-.909 2.376-1.649 2.999-2.778 0 0 .155-.118.188.085 0 .304-.349 1.329-.968 1.874Zm4.945 11.237a2.957 2.957 0 0 1-.937 1.553c-.346.346-.8.565-1.286.62a2.178 2.178 0 0 1-1.327-.62 2.955 2.955 0 0 1-.925-1.553.244.244 0 0 1 .064-.198.234.234 0 0 1 .193-.069h3.965a.226.226 0 0 1 .19.07c.05.053.073.125.063.197Zm-5.458-2.176a1.862 1.862 0 0 1-2.384-.245 1.98 1.98 0 0 1-.233-2.447c.207-.319.503-.566.848-.713a1.84 1.84 0 0 1 1.092-.11c.366.075.703.261.967.531a1.98 1.98 0 0 1 .408 2.114 1.931 1.931 0 0 1-.698.869v.001Zm8.495.005a1.86 1.86 0 0 1-2.381-.253 1.964 1.964 0 0 1-.547-1.366c0-.384.11-.76.32-1.079.207-.319.503-.567.849-.713a1.844 1.844 0 0 1 1.093-.108c.367.076.704.262.968.534a1.98 1.98 0 0 1 .4 2.117 1.932 1.932 0 0 1-.702.868Z"
     id="path1"
     style="fill:#f9e9d8;fill-opacity:1" /><rect
     style="fill:#f9e9d8;fill-opacity:1;stroke-width:44.9272;stroke-linecap:round;stroke-linejoin:round;paint-order:stroke fill markers"
     id="rect1"
     width="14.513661"
     height="10.491803"
     x="4.5901637"
     y="8.5245905" /><path
     d="m 12.064157,14.939186 c -0.667278,1.37733 -1.580508,3.242286 -2.033914,4.083512 -0.4391489,0.765658 -0.8034426,0.663713 -1.0921685,0.02067 C 7.9357322,16.675819 5.8775798,12.524582 4.9094569,10.196951 4.7305181,9.7684957 4.5950664,9.4933147 4.4681696,9.3849537 4.3391341,9.2780187 4.0732211,9.2138567 3.6682919,9.1917567 3.5185822,9.1746467 3.4451531,9.1382867 3.4451531,9.0784057 v -0.324372 l 0.037071,-0.03208 c 0.6587229,-0.0036 3.8503917,0 3.8503917,0 l 0.036358,0.03208 v 0.309401 c 0,0.08483 -0.053468,0.125471 -0.1604033,0.125471 l -0.4020775,0.0221 c -0.3457582,0.02067 -0.5182809,0.116916 -0.5182809,0.310826 0,0.09624 0.037784,0.235258 0.118342,0.428455 0.7713616,1.8863433 3.434769,7.5004583 3.434769,7.5004583 l 0.096955,0.03279 1.7188109,-3.429066 -0.343619,-0.760668 -1.181995,-2.326917 c 0,0 -0.2267034,-0.46624 -0.3051228,-0.621653 C 9.3073584,9.3165107 9.318765,9.2630437 8.7947808,9.1924657 8.6472099,9.1760657 8.5716421,9.1568157 8.5716421,9.0862437 v -0.333639 l 0.042774,-0.03208 h 3.0597829 l 0.08056,0.02638 v 0.32152 c 0,0.07486 -0.05418,0.106935 -0.161829,0.106935 l -0.219575,0.03351 c -0.564619,0.043484 -0.471229,0.271613 -0.09695,1.0137463 l 1.127813,2.318363 1.253284,-2.498015 c 0.208881,-0.4562583 0.166107,-0.5710363 0.07913,-0.6751203 -0.0499,-0.05988 -0.217436,-0.156838 -0.578878,-0.171096 l -0.143294,-0.01497 c -0.03707,0 -0.06987,-0.01069 -0.103371,-0.03636 -0.03208,-0.0221 -0.04776,-0.05418 -0.04776,-0.09197 v -0.30441 l 0.04349,-0.03208 c 0.888991,-0.0057 2.882268,0 2.882268,0 l 0.04206,0.03208 v 0.310826 c 0,0.08626 -0.04206,0.126897 -0.13759,0.126897 -0.460536,0.02139 -0.55749,0.06773 -0.7293,0.312965 -0.08555,0.1326 -0.267338,0.4199 -0.460535,0.7407063 l -1.640391,3.046238 -0.04634,0.09624 1.990427,4.072105 0.121193,0.03422 3.133923,-7.441288 c 0.109787,-0.3008453 0.09197,-0.5147163 -0.04562,-0.6380483 -0.140443,-0.122613 -0.246666,-0.194616 -0.61096,-0.2103 l -0.299419,-0.01141 c -0.04349,0 -0.07485,-0.01 -0.108362,-0.03208 -0.03065,-0.02067 -0.05133,-0.05347 -0.05133,-0.08483 v -0.310826 l 0.04206,-0.03208 h 3.536714 l 0.02923,0.03208 v 0.311538 c 0,0.08484 -0.05276,0.128323 -0.148997,0.128323 -0.461961,0.02139 -0.803442,0.128323 -1.02872,0.300132 -0.223851,0.181791 -0.397087,0.439149 -0.524697,0.7606683 0,0 -2.882268,6.600062 -3.868213,8.796518 -0.374275,0.717894 -0.750688,0.653732 -1.071494,-0.0221 -0.407068,-0.83481 -1.263978,-2.699053 -1.886343,-4.070679 z"
     id="path1-9"
     style="stroke-width:0.712903" /><metadata
     id="metadata1"><rdf:RDF><cc:Work
         rdf:about=""><dc:title>Bun</dc:title></cc:Work></rdf:RDF></metadata></svg>
